<mxfile host="65bd71144e">
    <diagram id="ARbs-kepXm60Pdj-r42d" name="Page-1">
        <mxGraphModel dx="2150" dy="1852" grid="0" gridSize="10" guides="1" tooltips="1" connect="1" arrows="1" fold="1" page="0" pageScale="1" pageWidth="827" pageHeight="1169" math="0" shadow="0">
            <root>
                <mxCell id="0"/>
                <mxCell id="1" parent="0"/>
                <mxCell id="12" style="edgeStyle=none;html=1;noEdgeStyle=1;orthogonal=1;" edge="1" parent="1" source="4" target="5">
                    <mxGeometry relative="1" as="geometry">
                        <Array as="points">
                            <mxPoint x="149" y="44"/>
                            <mxPoint x="149" y="120"/>
                        </Array>
                    </mxGeometry>
                </mxCell>
                <mxCell id="4" value="Frontend" style="rounded=1;whiteSpace=wrap;html=1;" vertex="1" parent="1">
                    <mxGeometry x="82" width="134" height="32" as="geometry"/>
                </mxCell>
                <mxCell id="13" style="edgeStyle=none;html=1;noEdgeStyle=1;orthogonal=1;" edge="1" parent="1" source="5" target="7">
                    <mxGeometry relative="1" as="geometry">
                        <Array as="points">
                            <mxPoint x="149" y="176"/>
                            <mxPoint x="149" y="252"/>
                        </Array>
                    </mxGeometry>
                </mxCell>
                <mxCell id="5" value="Routes" style="rounded=1;whiteSpace=wrap;html=1;" vertex="1" parent="1">
                    <mxGeometry x="82" y="132" width="134" height="32" as="geometry"/>
                </mxCell>
                <mxCell id="14" style="edgeStyle=none;html=1;noEdgeStyle=1;orthogonal=1;" edge="1" parent="1" source="7" target="8">
                    <mxGeometry relative="1" as="geometry">
                        <Array as="points">
                            <mxPoint x="149" y="308"/>
                            <mxPoint x="149" y="384"/>
                        </Array>
                    </mxGeometry>
                </mxCell>
                <mxCell id="7" value="Panels" style="rounded=1;whiteSpace=wrap;html=1;" vertex="1" parent="1">
                    <mxGeometry x="82" y="264" width="134" height="32" as="geometry"/>
                </mxCell>
                <mxCell id="15" style="edgeStyle=none;html=1;noEdgeStyle=1;orthogonal=1;" edge="1" parent="1" source="8" target="9">
                    <mxGeometry relative="1" as="geometry">
                        <Array as="points">
                            <mxPoint x="118" y="440"/>
                            <mxPoint x="67" y="516"/>
                        </Array>
                    </mxGeometry>
                </mxCell>
                <mxCell id="19" style="edgeStyle=none;html=1;noEdgeStyle=1;orthogonal=1;" edge="1" parent="1" source="8" target="10">
                    <mxGeometry relative="1" as="geometry">
                        <Array as="points">
                            <mxPoint x="180" y="440"/>
                            <mxPoint x="231" y="516"/>
                        </Array>
                    </mxGeometry>
                </mxCell>
                <mxCell id="8" value="Components" style="rounded=1;whiteSpace=wrap;html=1;" vertex="1" parent="1">
                    <mxGeometry x="82" y="396" width="134" height="32" as="geometry"/>
                </mxCell>
                <mxCell id="18" style="edgeStyle=none;html=1;noEdgeStyle=1;orthogonal=1;" edge="1" parent="1" source="9" target="11">
                    <mxGeometry relative="1" as="geometry">
                        <Array as="points">
                            <mxPoint x="67" y="572"/>
                            <mxPoint x="118" y="648"/>
                        </Array>
                    </mxGeometry>
                </mxCell>
                <mxCell id="9" value="Search Bar" style="rounded=1;whiteSpace=wrap;html=1;" vertex="1" parent="1">
                    <mxGeometry y="528" width="134" height="32" as="geometry"/>
                </mxCell>
                <mxCell id="17" style="edgeStyle=none;html=1;noEdgeStyle=1;orthogonal=1;" edge="1" parent="1" source="10" target="11">
                    <mxGeometry relative="1" as="geometry">
                        <Array as="points">
                            <mxPoint x="231" y="572"/>
                            <mxPoint x="180" y="648"/>
                        </Array>
                    </mxGeometry>
                </mxCell>
                <mxCell id="10" value="Users Table" style="rounded=1;whiteSpace=wrap;html=1;" vertex="1" parent="1">
                    <mxGeometry x="164" y="528" width="134" height="32" as="geometry"/>
                </mxCell>
                <mxCell id="11" value="Actions" style="rounded=1;whiteSpace=wrap;html=1;" vertex="1" parent="1">
                    <mxGeometry x="82" y="660" width="134" height="32" as="geometry"/>
                </mxCell>
                <mxCell id="20" value="&lt;font style=&quot;font-size: 33px;&quot;&gt;Frontend&lt;/font&gt;" style="rounded=1;whiteSpace=wrap;html=1;fontStyle=0" vertex="1" parent="1">
                    <mxGeometry x="-25" y="749" width="432" height="400" as="geometry"/>
                </mxCell>
                <mxCell id="22" value="&lt;font style=&quot;font-size: 33px;&quot;&gt;Back end&lt;/font&gt;" style="rounded=1;whiteSpace=wrap;html=1;" vertex="1" parent="1">
                    <mxGeometry x="-53" y="-500" width="432" height="400" as="geometry"/>
                </mxCell>
            </root>
        </mxGraphModel>
    </diagram>
</mxfile>